<svg xmlns="http://www.w3.org/2000/svg" viewBox="0 0 298.42 81.04"><defs><style>.cls-1{fill:#fff;}.cls-2{fill:#e60013;}</style></defs><title>Asset 2</title><g id="Layer_2" data-name="Layer 2"><g id="图层_1" data-name="图层 1"><rect class="cls-1" x="40.16" y="0.65" width="80.31" height="80.31"/><polygon class="cls-2" points="120.47 80.96 160.62 40.81 120.47 0.65 120.47 80.96"/><polygon class="cls-2" points="80.31 40.81 120.47 0.65 40.16 0.65 80.31 40.81"/><polygon class="cls-2" points="0 40.8 40.16 80.96 40.16 0.65 0 40.8"/><polygon class="cls-2" points="40.16 80.96 120.47 80.96 80.31 40.81 40.16 80.96"/><polygon class="cls-1" points="195.87 19.91 181.31 19.91 181.31 34.28 174.01 34.28 174.01 0.65 181.31 0.65 181.31 14.42 195.87 14.42 195.87 0.65 203.18 0.65 203.18 34.28 195.87 34.28 195.87 19.91"/><path class="cls-1" d="M220.66,34.89c-7.26,0-13.21-2.89-13.35-10.94h7.3c.1,3.59,2.19,5.73,6.19,5.73,3,0,6.33-1.49,6.33-4.84,0-2.61-2.28-3.44-6-4.51l-2.42-.7c-5.3-1.53-10.56-3.58-10.56-9.63,0-7.49,7-10,13.35-10,6.56,0,12.19,2.28,12.24,9.72h-7.31c-.28-3.07-2-4.84-5.49-4.84-2.69,0-5.39,1.45-5.39,4.42,0,2.47,2.23,3.21,7,4.7l2.79.88c5.77,1.82,9.39,3.82,9.39,9.4,0,7.68-7.39,10.61-14,10.61"/><path class="cls-1" d="M238.78.65h11.67a29.17,29.17,0,0,1,6.61.42c4.09.93,7.16,3.58,7.16,8.09,0,4.33-2.74,6.56-6.7,7.58,4.56.84,7.91,3.17,7.91,8.15,0,7.62-7.54,9.39-13.44,9.39H238.78Zm11.72,14c3.21,0,6.46-.65,6.46-4.56,0-3.48-3.07-4.42-6-4.42h-5.11v9Zm.7,14.61c3.39,0,6.74-.79,6.74-4.89s-2.88-4.93-6.33-4.93h-5.76v9.82Z"/><path class="cls-1" d="M284.46,34.89c-10.84,0-15.72-6.94-15.72-17.17S274.13,0,284.83,0c6.7,0,13.21,3,13.4,10.6H290.7c-.38-3.35-2.61-5.11-5.87-5.11-6.56,0-8.56,7.07-8.56,12.46s2,11.59,8.33,11.59c3.31,0,5.72-1.77,6.23-5.17h7.59c-.84,7.63-7,10.52-14,10.52"/><path class="cls-1" d="M181.51,64.51c-1.88-2-4.13-3.19-7.43-4.92l2.4-3.08a27.72,27.72,0,0,1,7.7,4.88ZM178,80.88l-3.68-2.28A41.23,41.23,0,0,0,181,65.86l3.75,1.66A42.69,42.69,0,0,1,178,80.88M182.6,55.8a30.55,30.55,0,0,0-7.47-5.07l2.36-3a30.65,30.65,0,0,1,7.66,5ZM186.65,79v-30h19.72v3.83H190.52V75.1h16.64V79Z"/><polygon class="cls-1" points="233.38 71.46 233.38 81.04 229.28 81.04 229.28 71.46 214.94 71.46 214.94 67.63 229.28 67.63 229.28 63.38 216.96 63.38 216.96 59.55 229.28 59.55 229.28 56.06 216.51 56.06 216.51 52.23 229.28 52.23 229.28 47.16 233.38 47.16 233.38 52.23 245.84 52.23 245.84 56.06 233.38 56.06 233.38 59.55 245.58 59.55 245.58 63.38 233.38 63.38 233.38 67.63 247.61 67.63 247.61 71.46 233.38 71.46"/></g></g></svg>